<?xml version="1.0" encoding="UTF-8" standalone="no"?>
<svg
   width="220"
   height="24"
   fill="none"
   viewBox="0 0 220 24"
   version="1.1"
   id="svg6"
   sodipodi:docname="Logo-Big.svg"
   inkscape:export-filename="logo.png"
   inkscape:export-xdpi="280"
   inkscape:export-ydpi="280"
   inkscape:version="1.2.2 (b0a8486541, 2022-12-01)"
   xmlns:inkscape="http://www.inkscape.org/namespaces/inkscape"
   xmlns:sodipodi="http://sodipodi.sourceforge.net/DTD/sodipodi-0.dtd"
   xmlns="http://www.w3.org/2000/svg"
   xmlns:svg="http://www.w3.org/2000/svg">
  <defs
     id="defs10">
    <rect
       x="24.15333"
       y="4.9204512"
       width="27.852182"
       height="16.882776"
       id="rect170" />
  </defs>
  <sodipodi:namedview
     id="namedview8"
     pagecolor="#ffffff"
     bordercolor="#000000"
     borderopacity="0.25"
     inkscape:showpageshadow="2"
     inkscape:pageopacity="0.0"
     inkscape:pagecheckerboard="false"
     inkscape:deskcolor="#d1d1d1"
     showgrid="false"
     inkscape:zoom="35.666667"
     inkscape:cx="16.906542"
     inkscape:cy="12.742991"
     inkscape:window-width="1920"
     inkscape:window-height="1080"
     inkscape:window-x="0"
     inkscape:window-y="0"
     inkscape:window-maximized="1"
     inkscape:current-layer="svg6" />
  <style
     id="style2">
        #flame { fill: #FF5D01; }
        #a { fill: #000014; }
        @media (prefers-color-scheme: dark) {
            #a { fill: #fff; }
        }
    </style>
  <path
     fill="currentColor"
     d="M 18.92,6.01 C 18.72,5.42 18.16,5 17.5,5 H 6.5 C 5.84,5 5.29,5.42 5.08,6.01 L 3.11,11.68 C 3.04,11.89 3,12.11 3,12.34 V 19.5 C 3,20.33 3.67,21 4.5,21 5.33,21 6,20.33 6,19.5 V 19 h 12 v 0.5 c 0,0.82 0.67,1.5 1.5,1.5 0.82,0 1.5,-0.67 1.5,-1.5 v -7.16 c 0,-0.22 -0.04,-0.45 -0.11,-0.66 z M 6.5,16 C 5.67,16 5,15.33 5,14.5 5,13.67 5.67,13 6.5,13 7.33,13 8,13.67 8,14.5 8,15.33 7.33,16 6.5,16 Z m 11,0 C 16.67,16 16,15.33 16,14.5 16,13.67 16.67,13 17.5,13 18.33,13 19,13.67 19,14.5 19,15.33 18.33,16 17.5,16 Z M 5,11 6.27,7.18 C 6.41,6.78 6.79,6.5 7.22,6.5 h 9.56 c 0.43,0 0.81,0.28 0.95,0.68 L 19,11 Z"
     id="path4" />
  <text
     xml:space="preserve"
     id="text168"
     style="white-space:pre;shape-inside:url(#rect170);fill:#000000" />
  <text
     xml:space="preserve"
     style="font-style:normal;font-variant:normal;font-weight:normal;font-stretch:normal;font-size:21.3333px;font-family:Ubuntu;-inkscape-font-specification:Ubuntu;fill:#000000"
     x="28.226856"
     y="19.782784"
     id="text176"><tspan
       sodipodi:role="line"
       id="tspan174"
       x="28.226856"
       y="19.782784">Privater Automarkt</tspan></text>
</svg>
